{
	"patcher" : 	{
		"fileversion" : 1,
		"appversion" : 		{
			"major" : 7,
			"minor" : 3,
			"revision" : 4,
			"architecture" : "x86",
			"modernui" : 1
		}
,
		"rect" : [ 338.0, 78.0, 1308.0, 746.0 ],
		"bglocked" : 0,
		"openinpresentation" : 1,
		"default_fontsize" : 12.0,
		"default_fontface" : 0,
		"default_fontname" : "Arial",
		"gridonopen" : 1,
		"gridsize" : [ 15.0, 15.0 ],
		"gridsnaponopen" : 1,
		"objectsnaponopen" : 1,
		"statusbarvisible" : 2,
		"toolbarvisible" : 1,
		"lefttoolbarpinned" : 0,
		"toptoolbarpinned" : 0,
		"righttoolbarpinned" : 0,
		"bottomtoolbarpinned" : 0,
		"toolbars_unpinned_last_save" : 0,
		"tallnewobj" : 0,
		"boxanimatetime" : 200,
		"enablehscroll" : 1,
		"enablevscroll" : 1,
		"devicewidth" : 0.0,
		"description" : "",
		"digest" : "",
		"tags" : "",
		"style" : "",
		"subpatcher_template" : "",
		"boxes" : [ 			{
				"box" : 				{
					"id" : "obj-21",
					"maxclass" : "message",
					"numinlets" : 2,
					"numoutlets" : 1,
					"outlettype" : [ "" ],
					"patching_rect" : [ 507.0, 525.0, 178.0, 22.0 ],
					"presentation" : 1,
					"presentation_rect" : [ 351.0, 252.0, 109.0, 22.0 ],
					"style" : "",
					"text" : "visit Patch Library!"
				}

			}
, 			{
				"box" : 				{
					"id" : "obj-15",
					"linecount" : 2,
					"maxclass" : "comment",
					"numinlets" : 1,
					"numoutlets" : 0,
					"patching_rect" : [ 814.0, 550.5, 98.0, 33.0 ],
					"style" : "",
					"text" : "Click to see patch in browser"
				}

			}
, 			{
				"box" : 				{
					"id" : "obj-14",
					"linecount" : 3,
					"maxclass" : "message",
					"numinlets" : 2,
					"numoutlets" : 1,
					"outlettype" : [ "" ],
					"patching_rect" : [ 507.0, 549.0, 305.0, 49.0 ],
					"style" : "",
					"text" : ";\rmax launch_browser https://hoxtonowl.com/patch-library/patch/TapeDelay/"
				}

			}
, 			{
				"box" : 				{
					"id" : "obj-9",
					"maxclass" : "comment",
					"numinlets" : 1,
					"numoutlets" : 0,
					"patching_rect" : [ 211.0, 563.5, 150.0, 20.0 ],
					"presentation" : 1,
					"presentation_linecount" : 2,
					"presentation_rect" : [ 414.0, 331.5, 58.0, 33.0 ],
					"style" : "",
					"text" : "Turn audio on"
				}

			}
, 			{
				"box" : 				{
					"id" : "obj-7",
					"linecount" : 2,
					"maxclass" : "comment",
					"numinlets" : 1,
					"numoutlets" : 0,
					"patching_rect" : [ 338.5, 428.0, 89.0, 33.0 ],
					"presentation" : 1,
					"presentation_rect" : [ 218.0, 331.5, 150.0, 20.0 ],
					"style" : "",
					"text" : "Try some presets"
				}

			}
, 			{
				"box" : 				{
					"id" : "obj-74",
					"maxclass" : "comment",
					"numinlets" : 1,
					"numoutlets" : 0,
					"patching_rect" : [ 820.5, 614.0, 505.0, 20.0 ],
					"style" : "",
					"text" : "By Cherif Hashizume and Adam Parkinson",
					"textcolor" : [ 1.0, 1.0, 1.0, 1.0 ]
				}

			}
, 			{
				"box" : 				{
					"fontname" : "Arial",
					"fontsize" : 12.0,
					"id" : "obj-12",
					"maxclass" : "message",
					"numinlets" : 2,
					"numoutlets" : 1,
					"outlettype" : [ "" ],
					"patching_rect" : [ 952.5, 544.5, 106.0, 22.0 ],
					"style" : "",
					"text" : "load OWLwatcher"
				}

			}
, 			{
				"box" : 				{
					"fontname" : "Arial",
					"fontsize" : 12.0,
					"id" : "obj-13",
					"maxclass" : "newobj",
					"numinlets" : 1,
					"numoutlets" : 1,
					"outlettype" : [ "" ],
					"patching_rect" : [ 952.5, 576.0, 53.0, 22.0 ],
					"style" : "",
					"text" : "pcontrol"
				}

			}
, 			{
				"box" : 				{
					"id" : "obj-11",
					"maxclass" : "newobj",
					"numinlets" : 1,
					"numoutlets" : 1,
					"outlettype" : [ "bang" ],
					"patching_rect" : [ 952.5, 510.0, 60.0, 22.0 ],
					"style" : "",
					"text" : "loadbang"
				}

			}
, 			{
				"box" : 				{
					"id" : "obj-2",
					"linecount" : 3,
					"maxclass" : "comment",
					"numinlets" : 1,
					"numoutlets" : 0,
					"patching_rect" : [ 289.0, 30.5, 127.0, 47.0 ],
					"presentation" : 1,
					"presentation_linecount" : 3,
					"presentation_rect" : [ 351.0, 175.5, 103.5, 47.0 ],
					"style" : "",
					"text" : "Stereo tape-style delay patch. \n\n"
				}

			}
, 			{
				"box" : 				{
					"id" : "obj-72",
					"maxclass" : "newobj",
					"numinlets" : 1,
					"numoutlets" : 1,
					"outlettype" : [ "" ],
					"patching_rect" : [ 258.5, 428.0, 75.0, 22.0 ],
					"style" : "",
					"text" : "loadmess 1"
				}

			}
, 			{
				"box" : 				{
					"id" : "obj-71",
					"maxclass" : "message",
					"numinlets" : 2,
					"numoutlets" : 1,
					"outlettype" : [ "" ],
					"patching_rect" : [ 333.5, 144.5, 57.0, 22.0 ],
					"style" : "",
					"text" : "loop 1, 1"
				}

			}
, 			{
				"box" : 				{
					"id" : "obj-68",
					"maxclass" : "newobj",
					"numinlets" : 1,
					"numoutlets" : 1,
					"outlettype" : [ "bang" ],
					"patching_rect" : [ 333.5, 114.5, 60.0, 22.0 ],
					"style" : "",
					"text" : "loadbang"
				}

			}
, 			{
				"box" : 				{
					"id" : "obj-67",
					"maxclass" : "preset",
					"numinlets" : 1,
					"numoutlets" : 4,
					"outlettype" : [ "preset", "int", "preset", "int" ],
					"patching_rect" : [ 258.5, 458.0, 55.0, 18.0 ],
					"presentation" : 1,
					"presentation_rect" : [ 218.0, 363.0, 52.0, 17.0 ],
					"preset_data" : [ 						{
							"number" : 1,
							"data" : [ 5, "obj-54", "live.gain~", "float", 0.0, 5, "obj-32", "dial", "float", 0.033333, 5, "obj-30", "dial", "float", 0.633333, 5, "obj-29", "dial", "float", 0.6, 5, "obj-28", "dial", "float", 0.616667, 5, "obj-42", "slider", "float", 0.0 ]
						}
, 						{
							"number" : 2,
							"data" : [ 5, "obj-54", "live.gain~", "float", 0.0, 5, "obj-32", "dial", "float", 0.033333, 5, "obj-30", "dial", "float", 0.95, 5, "obj-29", "dial", "float", 0.6, 5, "obj-28", "dial", "float", 0.616667, 5, "obj-42", "slider", "float", 0.0 ]
						}
, 						{
							"number" : 3,
							"data" : [ 5, "obj-54", "live.gain~", "float", 0.0, 5, "obj-32", "dial", "float", 0.35, 5, "obj-30", "dial", "float", 0.466667, 5, "obj-29", "dial", "float", 0.6, 5, "obj-28", "dial", "float", 0.616667, 5, "obj-42", "slider", "float", 0.0 ]
						}
, 						{
							"number" : 8,
							"data" : [ 5, "obj-54", "live.gain~", "float", 0.0, 5, "obj-32", "dial", "float", 0.133333, 5, "obj-30", "dial", "float", 0.633333, 5, "obj-29", "dial", "float", 0.6, 5, "obj-28", "dial", "float", 0.616667, 5, "obj-42", "slider", "float", 0.0 ]
						}
 ],
					"style" : ""
				}

			}
, 			{
				"box" : 				{
					"data" : 					{
						"clips" : [ 							{
								"filename" : "drumLoop.aif",
								"filekind" : "audiofile",
								"loop" : 1,
								"content_state" : 								{
									"slurtime" : [ 0.0 ],
									"originallengthms" : [ 0.0 ],
									"formantcorrection" : [ 0 ],
									"pitchshift" : [ 1.0 ],
									"timestretch" : [ 0 ],
									"followglobaltempo" : [ 0 ],
									"play" : [ 0 ],
									"originallength" : [ 0.0, "ticks" ],
									"speed" : [ 1.0 ],
									"formant" : [ 1.0 ],
									"mode" : [ "basic" ],
									"pitchcorrection" : [ 0 ],
									"originaltempo" : [ 120.0 ],
									"quality" : [ "basic" ],
									"basictuning" : [ 440 ]
								}

							}
 ]
					}
,
					"id" : "obj-64",
					"maxclass" : "playlist~",
					"numinlets" : 1,
					"numoutlets" : 5,
					"outlettype" : [ "signal", "signal", "signal", "", "dictionary" ],
					"patching_rect" : [ 333.5, 177.0, 150.0, 30.0 ],
					"presentation" : 1,
					"presentation_rect" : [ 218.0, 395.5, 122.0, 30.0 ],
					"style" : ""
				}

			}
, 			{
				"box" : 				{
					"id" : "obj-16",
					"maxclass" : "newobj",
					"numinlets" : 1,
					"numoutlets" : 0,
					"patching_rect" : [ 508.5, 409.5, 105.0, 22.0 ],
					"style" : "",
					"text" : "send OwlControls"
				}

			}
, 			{
				"box" : 				{
					"id" : "obj-23",
					"maxclass" : "newobj",
					"numinlets" : 1,
					"numoutlets" : 1,
					"outlettype" : [ "int" ],
					"patcher" : 					{
						"fileversion" : 1,
						"appversion" : 						{
							"major" : 7,
							"minor" : 3,
							"revision" : 4,
							"architecture" : "x86",
							"modernui" : 1
						}
,
						"rect" : [ 134.0, 179.0, 640.0, 480.0 ],
						"bglocked" : 0,
						"openinpresentation" : 0,
						"default_fontsize" : 12.0,
						"default_fontface" : 0,
						"default_fontname" : "Arial",
						"gridonopen" : 1,
						"gridsize" : [ 15.0, 15.0 ],
						"gridsnaponopen" : 1,
						"objectsnaponopen" : 1,
						"statusbarvisible" : 2,
						"toolbarvisible" : 1,
						"lefttoolbarpinned" : 0,
						"toptoolbarpinned" : 0,
						"righttoolbarpinned" : 0,
						"bottomtoolbarpinned" : 0,
						"toolbars_unpinned_last_save" : 0,
						"tallnewobj" : 0,
						"boxanimatetime" : 200,
						"enablehscroll" : 1,
						"enablevscroll" : 1,
						"devicewidth" : 0.0,
						"description" : "",
						"digest" : "",
						"tags" : "",
						"style" : "",
						"subpatcher_template" : "",
						"boxes" : [ 							{
								"box" : 								{
									"id" : "obj-19",
									"maxclass" : "newobj",
									"numinlets" : 1,
									"numoutlets" : 1,
									"outlettype" : [ "int" ],
									"patching_rect" : [ 110.0, 139.0, 24.0, 22.0 ],
									"style" : "",
									"text" : "t 0"
								}

							}
, 							{
								"box" : 								{
									"id" : "obj-18",
									"maxclass" : "newobj",
									"numinlets" : 2,
									"numoutlets" : 1,
									"outlettype" : [ "bang" ],
									"patching_rect" : [ 110.0, 100.0, 56.0, 22.0 ],
									"style" : "",
									"text" : "delay 50"
								}

							}
, 							{
								"box" : 								{
									"id" : "obj-16",
									"maxclass" : "newobj",
									"numinlets" : 1,
									"numoutlets" : 1,
									"outlettype" : [ "int" ],
									"patching_rect" : [ 58.0, 105.0, 24.0, 22.0 ],
									"style" : "",
									"text" : "t 1"
								}

							}
, 							{
								"box" : 								{
									"id" : "obj-21",
									"maxclass" : "toggle",
									"numinlets" : 1,
									"numoutlets" : 1,
									"outlettype" : [ "int" ],
									"parameter_enable" : 0,
									"patching_rect" : [ 50.0, 158.0, 24.0, 24.0 ],
									"style" : ""
								}

							}
, 							{
								"box" : 								{
									"comment" : "",
									"id" : "obj-4",
									"index" : 1,
									"maxclass" : "inlet",
									"numinlets" : 0,
									"numoutlets" : 1,
									"outlettype" : [ "bang" ],
									"patching_rect" : [ 78.0, 40.0, 30.0, 30.0 ],
									"style" : ""
								}

							}
, 							{
								"box" : 								{
									"comment" : "",
									"id" : "obj-5",
									"index" : 1,
									"maxclass" : "outlet",
									"numinlets" : 1,
									"numoutlets" : 0,
									"patching_rect" : [ 50.0, 242.0, 30.0, 30.0 ],
									"style" : ""
								}

							}
 ],
						"lines" : [ 							{
								"patchline" : 								{
									"destination" : [ "obj-21", 0 ],
									"source" : [ "obj-16", 0 ]
								}

							}
, 							{
								"patchline" : 								{
									"destination" : [ "obj-19", 0 ],
									"source" : [ "obj-18", 0 ]
								}

							}
, 							{
								"patchline" : 								{
									"destination" : [ "obj-21", 0 ],
									"source" : [ "obj-19", 0 ]
								}

							}
, 							{
								"patchline" : 								{
									"destination" : [ "obj-5", 0 ],
									"source" : [ "obj-21", 0 ]
								}

							}
, 							{
								"patchline" : 								{
									"destination" : [ "obj-16", 0 ],
									"order" : 1,
									"source" : [ "obj-4", 0 ]
								}

							}
, 							{
								"patchline" : 								{
									"destination" : [ "obj-18", 0 ],
									"order" : 0,
									"source" : [ "obj-4", 0 ]
								}

							}
 ]
					}
,
					"patching_rect" : [ 917.5, 275.5, 85.0, 22.0 ],
					"saved_object_attributes" : 					{
						"description" : "",
						"digest" : "",
						"globalpatchername" : "",
						"style" : "",
						"tags" : ""
					}
,
					"style" : "",
					"text" : "p"
				}

			}
, 			{
				"box" : 				{
					"id" : "obj-27",
					"maxclass" : "newobj",
					"numinlets" : 1,
					"numoutlets" : 1,
					"outlettype" : [ "" ],
					"patching_rect" : [ 820.5, 295.5, 82.0, 22.0 ],
					"style" : "",
					"text" : "prepend EXP"
				}

			}
, 			{
				"box" : 				{
					"id" : "obj-33",
					"maxclass" : "newobj",
					"numinlets" : 1,
					"numoutlets" : 1,
					"outlettype" : [ "" ],
					"patching_rect" : [ 917.5, 307.5, 85.0, 22.0 ],
					"style" : "",
					"text" : "prepend Push"
				}

			}
, 			{
				"box" : 				{
					"id" : "obj-35",
					"maxclass" : "newobj",
					"numinlets" : 1,
					"numoutlets" : 1,
					"outlettype" : [ "" ],
					"patching_rect" : [ 733.5, 295.5, 67.0, 22.0 ],
					"style" : "",
					"text" : "prepend D"
				}

			}
, 			{
				"box" : 				{
					"id" : "obj-37",
					"maxclass" : "newobj",
					"numinlets" : 1,
					"numoutlets" : 1,
					"outlettype" : [ "" ],
					"patching_rect" : [ 660.5, 295.5, 67.0, 22.0 ],
					"style" : "",
					"text" : "prepend C"
				}

			}
, 			{
				"box" : 				{
					"id" : "obj-45",
					"maxclass" : "newobj",
					"numinlets" : 1,
					"numoutlets" : 1,
					"outlettype" : [ "" ],
					"patching_rect" : [ 583.5, 295.5, 66.0, 22.0 ],
					"style" : "",
					"text" : "prepend B"
				}

			}
, 			{
				"box" : 				{
					"id" : "obj-47",
					"maxclass" : "newobj",
					"numinlets" : 1,
					"numoutlets" : 1,
					"outlettype" : [ "" ],
					"patching_rect" : [ 508.5, 295.5, 65.0, 22.0 ],
					"style" : "",
					"text" : "prepend A"
				}

			}
, 			{
				"box" : 				{
					"fontname" : "Lato Regular",
					"fontsize" : 14.0,
					"id" : "obj-43",
					"maxclass" : "comment",
					"numinlets" : 1,
					"numoutlets" : 0,
					"patching_rect" : [ 750.5, 204.5, 45.0, 23.0 ],
					"style" : "",
					"text" : "Exp"
				}

			}
, 			{
				"box" : 				{
					"bgcolor" : [ 0.65098, 0.666667, 0.662745, 0.63 ],
					"floatoutput" : 1,
					"id" : "obj-42",
					"knobcolor" : [ 0.0, 0.0, 0.0, 1.0 ],
					"knobshape" : 5,
					"maxclass" : "slider",
					"numinlets" : 1,
					"numoutlets" : 1,
					"outlettype" : [ "" ],
					"parameter_enable" : 0,
					"patching_rect" : [ 758.5, 125.5, 15.0, 75.0 ],
					"presentation" : 1,
					"presentation_rect" : [ 286.0, 208.0, 15.0, 75.0 ],
					"size" : 1.0,
					"style" : ""
				}

			}
, 			{
				"box" : 				{
					"fontname" : "Lato Regular",
					"fontsize" : 14.0,
					"id" : "obj-41",
					"maxclass" : "comment",
					"numinlets" : 1,
					"numoutlets" : 0,
					"patching_rect" : [ 632.0, 161.5, 53.0, 23.0 ],
					"presentation" : 1,
					"presentation_rect" : [ 159.5, 240.0, 53.0, 23.0 ],
					"style" : "",
					"text" : "Push"
				}

			}
, 			{
				"box" : 				{
					"fontname" : "Lato Regular",
					"fontsize" : 14.0,
					"id" : "obj-40",
					"maxclass" : "comment",
					"numinlets" : 1,
					"numoutlets" : 0,
					"patching_rect" : [ 754.5, 92.5, 23.0, 23.0 ],
					"presentation" : 1,
					"presentation_rect" : [ 282.0, 171.0, 23.0, 23.0 ],
					"style" : "",
					"text" : "D"
				}

			}
, 			{
				"box" : 				{
					"fontname" : "Lato Regular",
					"fontsize" : 14.0,
					"id" : "obj-25",
					"maxclass" : "comment",
					"numinlets" : 1,
					"numoutlets" : 0,
					"patching_rect" : [ 680.5, 92.5, 24.0, 23.0 ],
					"presentation" : 1,
					"presentation_rect" : [ 208.0, 171.0, 24.0, 23.0 ],
					"style" : "",
					"text" : "C"
				}

			}
, 			{
				"box" : 				{
					"fontname" : "Lato Regular",
					"fontsize" : 14.0,
					"id" : "obj-38",
					"maxclass" : "comment",
					"numinlets" : 1,
					"numoutlets" : 0,
					"patching_rect" : [ 603.5, 92.5, 24.0, 23.0 ],
					"presentation" : 1,
					"presentation_rect" : [ 131.0, 171.0, 24.0, 23.0 ],
					"style" : "",
					"text" : "B"
				}

			}
, 			{
				"box" : 				{
					"fontname" : "Lato Regular",
					"fontsize" : 14.0,
					"id" : "obj-36",
					"maxclass" : "comment",
					"numinlets" : 1,
					"numoutlets" : 0,
					"patching_rect" : [ 529.5, 92.5, 22.0, 23.0 ],
					"presentation" : 1,
					"presentation_rect" : [ 57.0, 171.0, 22.0, 23.0 ],
					"style" : "",
					"text" : "A"
				}

			}
, 			{
				"box" : 				{
					"bgcolor" : [ 0.290196, 0.309804, 0.301961, 0.0 ],
					"floatoutput" : 1,
					"id" : "obj-28",
					"maxclass" : "dial",
					"needlecolor" : [ 0.0, 0.0, 0.0, 1.0 ],
					"numinlets" : 1,
					"numoutlets" : 1,
					"outlettype" : [ "float" ],
					"outlinecolor" : [ 0.862745, 0.870588, 0.878431, 1.0 ],
					"parameter_enable" : 0,
					"patching_rect" : [ 733.5, 44.5, 60.0, 60.0 ],
					"presentation" : 1,
					"presentation_rect" : [ 261.0, 123.0, 60.0, 60.0 ],
					"size" : 1.0,
					"style" : "",
					"thickness" : 100.0
				}

			}
, 			{
				"box" : 				{
					"bgcolor" : [ 0.290196, 0.309804, 0.301961, 0.0 ],
					"floatoutput" : 1,
					"id" : "obj-29",
					"maxclass" : "dial",
					"needlecolor" : [ 0.0, 0.0, 0.0, 1.0 ],
					"numinlets" : 1,
					"numoutlets" : 1,
					"outlettype" : [ "float" ],
					"outlinecolor" : [ 0.862745, 0.870588, 0.878431, 1.0 ],
					"parameter_enable" : 0,
					"patching_rect" : [ 659.5, 44.5, 60.0, 60.0 ],
					"presentation" : 1,
					"presentation_rect" : [ 187.0, 123.0, 60.0, 60.0 ],
					"size" : 1.0,
					"style" : "",
					"thickness" : 100.0
				}

			}
, 			{
				"box" : 				{
					"bgcolor" : [ 0.290196, 0.309804, 0.301961, 0.0 ],
					"floatoutput" : 1,
					"id" : "obj-30",
					"maxclass" : "dial",
					"needlecolor" : [ 0.0, 0.0, 0.0, 1.0 ],
					"numinlets" : 1,
					"numoutlets" : 1,
					"outlettype" : [ "float" ],
					"outlinecolor" : [ 0.862745, 0.870588, 0.878431, 1.0 ],
					"parameter_enable" : 0,
					"patching_rect" : [ 582.5, 44.5, 60.0, 60.0 ],
					"presentation" : 1,
					"presentation_rect" : [ 110.0, 123.0, 60.0, 60.0 ],
					"size" : 1.0,
					"style" : "",
					"thickness" : 100.0
				}

			}
, 			{
				"box" : 				{
					"bgcolor" : [ 0.290196, 0.309804, 0.301961, 0.0 ],
					"blinkcolor" : [ 0.784314, 0.145098, 0.023529, 1.0 ],
					"id" : "obj-31",
					"maxclass" : "button",
					"numinlets" : 1,
					"numoutlets" : 1,
					"outlettype" : [ "bang" ],
					"outlinecolor" : [ 0.0, 0.0, 0.0, 0.988235 ],
					"patching_rect" : [ 622.0, 114.5, 59.0, 59.0 ],
					"presentation" : 1,
					"presentation_rect" : [ 149.5, 193.0, 59.0, 59.0 ],
					"style" : ""
				}

			}
, 			{
				"box" : 				{
					"bgcolor" : [ 0.290196, 0.309804, 0.301961, 0.0 ],
					"floatoutput" : 1,
					"id" : "obj-32",
					"maxclass" : "dial",
					"needlecolor" : [ 0.0, 0.0, 0.0, 1.0 ],
					"numinlets" : 1,
					"numoutlets" : 1,
					"outlettype" : [ "float" ],
					"outlinecolor" : [ 0.862745, 0.870588, 0.878431, 1.0 ],
					"parameter_enable" : 0,
					"patching_rect" : [ 508.5, 44.5, 60.0, 60.0 ],
					"presentation" : 1,
					"presentation_rect" : [ 36.0, 123.0, 60.0, 60.0 ],
					"size" : 1.0,
					"style" : "",
					"thickness" : 100.0
				}

			}
, 			{
				"box" : 				{
					"id" : "obj-39",
					"maxclass" : "message",
					"numinlets" : 2,
					"numoutlets" : 1,
					"outlettype" : [ "" ],
					"patching_rect" : [ 27.0, 185.0, 156.0, 22.0 ],
					"style" : "",
					"text" : "exportnotifier OWLwatcher"
				}

			}
, 			{
				"box" : 				{
					"id" : "obj-34",
					"maxclass" : "fpic",
					"numinlets" : 1,
					"numoutlets" : 1,
					"outlettype" : [ "jit_matrix" ],
					"patching_rect" : [ 508.5, 39.5, 296.0, 192.5 ],
					"pic" : "Macintosh HD:/Users/adamparkinson/Downloads/owl-faceplate-nourl-original (2).png",
					"presentation" : 1,
					"presentation_rect" : [ 22.0, 88.0, 306.0, 218.0 ]
				}

			}
, 			{
				"box" : 				{
					"id" : "obj-46",
					"maxclass" : "message",
					"numinlets" : 2,
					"numoutlets" : 1,
					"outlettype" : [ "" ],
					"patching_rect" : [ 33.0, 114.5, 70.0, 22.0 ],
					"presentation" : 1,
					"presentation_rect" : [ 30.0, 417.0, 70.0, 22.0 ],
					"style" : "",
					"text" : "exportcode"
				}

			}
, 			{
				"box" : 				{
					"fontface" : 3,
					"id" : "obj-44",
					"maxclass" : "comment",
					"numinlets" : 1,
					"numoutlets" : 0,
					"patching_rect" : [ 854.5, 27.5, 102.0, 20.0 ],
					"presentation" : 1,
					"presentation_rect" : [ 341.0, 26.5, 110.0, 20.0 ],
					"style" : "",
					"text" : "Controls"
				}

			}
, 			{
				"box" : 				{
					"fontname" : "Arial Bold Italic",
					"fontsize" : 36.0,
					"id" : "obj-48",
					"maxclass" : "comment",
					"numinlets" : 1,
					"numoutlets" : 0,
					"patching_rect" : [ 33.0, 24.0, 383.0, 47.0 ],
					"presentation" : 1,
					"presentation_rect" : [ 30.0, 26.5, 194.0, 47.0 ],
					"style" : "",
					"text" : "TapeDelay"
				}

			}
, 			{
				"box" : 				{
					"id" : "obj-62",
					"maxclass" : "comment",
					"numinlets" : 1,
					"numoutlets" : 0,
					"patching_rect" : [ 99.5, 114.5, 209.0, 20.0 ],
					"presentation" : 1,
					"presentation_linecount" : 2,
					"presentation_rect" : [ 30.0, 382.0, 150.0, 33.0 ],
					"style" : "",
					"text" : "Click to compile and export to OWL"
				}

			}
, 			{
				"box" : 				{
					"id" : "obj-50",
					"linecount" : 2,
					"maxclass" : "comment",
					"numinlets" : 1,
					"numoutlets" : 0,
					"patching_rect" : [ 333.5, 290.0, 125.0, 33.0 ],
					"presentation" : 1,
					"presentation_linecount" : 2,
					"presentation_rect" : [ 30.0, 322.5, 150.0, 33.0 ],
					"style" : "",
					"text" : "Double click to see the OWL gen patch"
				}

			}
, 			{
				"box" : 				{
					"id" : "obj-49",
					"maxclass" : "comment",
					"numinlets" : 1,
					"numoutlets" : 0,
					"patching_rect" : [ 850.5, 130.5, 142.0, 20.0 ],
					"presentation" : 1,
					"presentation_rect" : [ 341.0, 127.0, 142.0, 20.0 ],
					"style" : "",
					"text" : "D -  Dry / Wet"
				}

			}
, 			{
				"box" : 				{
					"id" : "obj-51",
					"maxclass" : "comment",
					"numinlets" : 1,
					"numoutlets" : 0,
					"patching_rect" : [ 849.5, 107.5, 142.0, 20.0 ],
					"presentation" : 1,
					"presentation_rect" : [ 340.0, 104.0, 142.0, 20.0 ],
					"style" : "",
					"text" : "C -  Filter"
				}

			}
, 			{
				"box" : 				{
					"id" : "obj-52",
					"maxclass" : "comment",
					"numinlets" : 1,
					"numoutlets" : 0,
					"patching_rect" : [ 850.5, 84.5, 142.0, 20.0 ],
					"presentation" : 1,
					"presentation_rect" : [ 341.0, 81.0, 142.0, 20.0 ],
					"style" : "",
					"text" : "B - Feedback"
				}

			}
, 			{
				"box" : 				{
					"id" : "obj-53",
					"maxclass" : "comment",
					"numinlets" : 1,
					"numoutlets" : 0,
					"patching_rect" : [ 850.5, 60.5, 142.0, 20.0 ],
					"presentation" : 1,
					"presentation_rect" : [ 341.0, 57.0, 142.0, 20.0 ],
					"style" : "",
					"text" : "A - Time"
				}

			}
, 			{
				"box" : 				{
					"id" : "obj-54",
					"maxclass" : "live.gain~",
					"numinlets" : 2,
					"numoutlets" : 5,
					"outlettype" : [ "signal", "signal", "", "float", "list" ],
					"parameter_enable" : 1,
					"patching_rect" : [ 145.0, 371.0, 48.0, 136.0 ],
					"presentation" : 1,
					"presentation_rect" : [ 357.0, 331.5, 55.0, 94.0 ],
					"saved_attribute_attributes" : 					{
						"valueof" : 						{
							"parameter_longname" : "live.gain~",
							"parameter_shortname" : "live.gain~",
							"parameter_type" : 0,
							"parameter_mmin" : -70.0,
							"parameter_mmax" : 6.0,
							"parameter_initial" : [ 0.0 ],
							"parameter_unitstyle" : 4
						}

					}
,
					"showname" : 0,
					"varname" : "live.gain~"
				}

			}
, 			{
				"box" : 				{
					"id" : "obj-55",
					"maxclass" : "ezdac~",
					"numinlets" : 2,
					"numoutlets" : 0,
					"patching_rect" : [ 145.0, 538.5, 45.0, 45.0 ],
					"presentation" : 1,
					"presentation_rect" : [ 415.0, 372.5, 52.0, 52.0 ],
					"style" : ""
				}

			}
, 			{
				"box" : 				{
					"id" : "obj-56",
					"maxclass" : "newobj",
					"numinlets" : 0,
					"numoutlets" : 1,
					"outlettype" : [ "" ],
					"patching_rect" : [ 145.0, 223.5, 118.0, 22.0 ],
					"style" : "",
					"text" : "receive OwlControls"
				}

			}
, 			{
				"box" : 				{
					"angle" : 270.0,
					"bgcolor" : [ 0.65098, 0.666667, 0.662745, 1.0 ],
					"id" : "obj-57",
					"maxclass" : "panel",
					"mode" : 0,
					"numinlets" : 1,
					"numoutlets" : 0,
					"patching_rect" : [ 20.0, 17.5, 459.0, 60.0 ],
					"presentation" : 1,
					"presentation_rect" : [ 22.0, 20.0, 307.0, 60.0 ],
					"proportion" : 0.39,
					"style" : ""
				}

			}
, 			{
				"box" : 				{
					"angle" : 270.0,
					"bgcolor" : [ 0.65098, 0.666667, 0.662745, 1.0 ],
					"id" : "obj-58",
					"maxclass" : "panel",
					"mode" : 0,
					"numinlets" : 1,
					"numoutlets" : 0,
					"patching_rect" : [ 823.5, 11.0, 189.0, 195.0 ],
					"presentation" : 1,
					"presentation_rect" : [ 339.0, 22.0, 133.0, 127.0 ],
					"proportion" : 0.39,
					"style" : ""
				}

			}
, 			{
				"box" : 				{
					"id" : "obj-26",
					"linecount" : 4,
					"maxclass" : "message",
					"numinlets" : 2,
					"numoutlets" : 1,
					"outlettype" : [ "" ],
					"patching_rect" : [ 507.0, 457.0, 297.5, 62.0 ],
					"style" : "",
					"text" : ";\rmax launch_browser http://www.rebeltech.org/2016/12/owl-max-tutorial-2-delay/"
				}

			}
, 			{
				"box" : 				{
					"id" : "obj-24",
					"maxclass" : "comment",
					"numinlets" : 1,
					"numoutlets" : 0,
					"patching_rect" : [ 811.0, 465.0, 98.0, 20.0 ],
					"style" : "",
					"text" : "Click for tutorial"
				}

			}
, 			{
				"box" : 				{
					"id" : "obj-1",
					"maxclass" : "newobj",
					"numinlets" : 2,
					"numoutlets" : 2,
					"outlettype" : [ "signal", "signal" ],
					"patching_rect" : [ 145.0, 295.5, 175.0, 22.0 ],
					"presentation" : 1,
					"presentation_rect" : [ 30.0, 358.0, 133.0, 22.0 ],
					"saved_object_attributes" : 					{
						"exportnotifier" : "OWLwatcher"
					}
,
					"style" : "",
					"text" : "gen~ @gen TapeDelay"
				}

			}
, 			{
				"box" : 				{
					"angle" : 270.0,
					"bgcolor" : [ 0.784314, 0.145098, 0.023529, 1.0 ],
					"id" : "obj-59",
					"maxclass" : "panel",
					"mode" : 0,
					"numinlets" : 1,
					"numoutlets" : 0,
					"patching_rect" : [ 132.5, 284.0, 193.5, 45.0 ],
					"presentation" : 1,
					"presentation_rect" : [ 22.0, 318.0, 182.0, 129.0 ],
					"proportion" : 0.39,
					"style" : ""
				}

			}
, 			{
				"box" : 				{
					"angle" : 270.0,
					"bgcolor" : [ 0.65098, 0.666667, 0.662745, 1.0 ],
					"id" : "obj-3",
					"maxclass" : "panel",
					"mode" : 0,
					"numinlets" : 1,
					"numoutlets" : 0,
					"patching_rect" : [ 498.5, 451.5, 413.5, 153.0 ],
					"presentation" : 1,
					"presentation_rect" : [ 208.0, 318.0, 264.0, 129.5 ],
					"proportion" : 0.39,
					"style" : ""
				}

			}
, 			{
				"box" : 				{
					"angle" : 270.0,
					"bgcolor" : [ 0.65098, 0.666667, 0.662745, 1.0 ],
					"id" : "obj-10",
					"maxclass" : "panel",
					"mode" : 0,
					"numinlets" : 1,
					"numoutlets" : 0,
					"patching_rect" : [ 265.5, 24.0, 162.0, 47.0 ],
					"presentation" : 1,
					"presentation_rect" : [ 339.0, 157.0, 133.0, 153.0 ],
					"proportion" : 0.39,
					"style" : ""
				}

			}
, 			{
				"box" : 				{
					"angle" : 270.0,
					"background" : 1,
					"bgcolor" : [ 1.0, 1.0, 1.0, 1.0 ],
					"id" : "obj-8",
					"maxclass" : "panel",
					"mode" : 0,
					"numinlets" : 1,
					"numoutlets" : 0,
					"patching_rect" : [ 508.5, 39.5, 296.0, 192.5 ],
					"presentation" : 1,
					"presentation_rect" : [ 22.0, 88.0, 307.0, 222.0 ],
					"proportion" : 0.39,
					"style" : ""
				}

			}
, 			{
				"box" : 				{
					"angle" : 270.0,
					"background" : 1,
					"bgcolor" : [ 0.65098, 0.666667, 0.662745, 1.0 ],
					"id" : "obj-66",
					"maxclass" : "panel",
					"mode" : 0,
					"numinlets" : 1,
					"numoutlets" : 0,
					"patching_rect" : [ 20.0, 90.5, 467.0, 514.0 ],
					"proportion" : 0.39,
					"style" : ""
				}

			}
, 			{
				"box" : 				{
					"angle" : 270.0,
					"background" : 1,
					"bgcolor" : [ 0.239216, 0.254902, 0.278431, 1.0 ],
					"id" : "obj-6",
					"maxclass" : "panel",
					"mode" : 0,
					"numinlets" : 1,
					"numoutlets" : 0,
					"patching_rect" : [ 5.5, 2.0, 1069.0, 642.0 ],
					"presentation" : 1,
					"presentation_rect" : [ 15.0, 13.5, 468.0, 444.0 ],
					"proportion" : 0.39,
					"style" : ""
				}

			}
 ],
		"lines" : [ 			{
				"patchline" : 				{
					"destination" : [ "obj-54", 1 ],
					"source" : [ "obj-1", 1 ]
				}

			}
, 			{
				"patchline" : 				{
					"destination" : [ "obj-54", 0 ],
					"source" : [ "obj-1", 0 ]
				}

			}
, 			{
				"patchline" : 				{
					"destination" : [ "obj-12", 0 ],
					"source" : [ "obj-11", 0 ]
				}

			}
, 			{
				"patchline" : 				{
					"destination" : [ "obj-13", 0 ],
					"source" : [ "obj-12", 0 ]
				}

			}
, 			{
				"patchline" : 				{
					"destination" : [ "obj-14", 0 ],
					"source" : [ "obj-21", 0 ]
				}

			}
, 			{
				"patchline" : 				{
					"destination" : [ "obj-33", 0 ],
					"source" : [ "obj-23", 0 ]
				}

			}
, 			{
				"patchline" : 				{
					"destination" : [ "obj-16", 0 ],
					"midpoints" : [ 830.0, 396.5, 518.0, 396.5 ],
					"source" : [ "obj-27", 0 ]
				}

			}
, 			{
				"patchline" : 				{
					"destination" : [ "obj-35", 0 ],
					"midpoints" : [ 743.0, 199.5, 743.0, 199.5 ],
					"source" : [ "obj-28", 0 ]
				}

			}
, 			{
				"patchline" : 				{
					"destination" : [ "obj-37", 0 ],
					"source" : [ "obj-29", 0 ]
				}

			}
, 			{
				"patchline" : 				{
					"destination" : [ "obj-45", 0 ],
					"source" : [ "obj-30", 0 ]
				}

			}
, 			{
				"patchline" : 				{
					"destination" : [ "obj-23", 0 ],
					"midpoints" : [ 631.5, 248.0, 927.0, 248.0 ],
					"source" : [ "obj-31", 0 ]
				}

			}
, 			{
				"patchline" : 				{
					"destination" : [ "obj-47", 0 ],
					"source" : [ "obj-32", 0 ]
				}

			}
, 			{
				"patchline" : 				{
					"destination" : [ "obj-16", 0 ],
					"midpoints" : [ 927.0, 396.5, 518.0, 396.5 ],
					"source" : [ "obj-33", 0 ]
				}

			}
, 			{
				"patchline" : 				{
					"destination" : [ "obj-16", 0 ],
					"midpoints" : [ 743.0, 396.5, 518.0, 396.5 ],
					"source" : [ "obj-35", 0 ]
				}

			}
, 			{
				"patchline" : 				{
					"destination" : [ "obj-16", 0 ],
					"midpoints" : [ 670.0, 396.5, 518.0, 396.5 ],
					"source" : [ "obj-37", 0 ]
				}

			}
, 			{
				"patchline" : 				{
					"destination" : [ "obj-1", 0 ],
					"source" : [ "obj-39", 0 ]
				}

			}
, 			{
				"patchline" : 				{
					"destination" : [ "obj-27", 0 ],
					"midpoints" : [ 767.5, 247.5, 830.0, 247.5 ],
					"source" : [ "obj-42", 0 ]
				}

			}
, 			{
				"patchline" : 				{
					"destination" : [ "obj-16", 0 ],
					"midpoints" : [ 593.0, 396.5, 518.0, 396.5 ],
					"source" : [ "obj-45", 0 ]
				}

			}
, 			{
				"patchline" : 				{
					"destination" : [ "obj-1", 0 ],
					"source" : [ "obj-46", 0 ]
				}

			}
, 			{
				"patchline" : 				{
					"destination" : [ "obj-16", 0 ],
					"midpoints" : [ 518.0, 318.5, 518.0, 318.5 ],
					"source" : [ "obj-47", 0 ]
				}

			}
, 			{
				"patchline" : 				{
					"destination" : [ "obj-55", 1 ],
					"source" : [ "obj-54", 1 ]
				}

			}
, 			{
				"patchline" : 				{
					"destination" : [ "obj-55", 0 ],
					"source" : [ "obj-54", 0 ]
				}

			}
, 			{
				"patchline" : 				{
					"destination" : [ "obj-1", 0 ],
					"source" : [ "obj-56", 0 ]
				}

			}
, 			{
				"patchline" : 				{
					"destination" : [ "obj-1", 1 ],
					"midpoints" : [ 343.0, 276.0, 310.5, 276.0 ],
					"order" : 0,
					"source" : [ "obj-64", 0 ]
				}

			}
, 			{
				"patchline" : 				{
					"destination" : [ "obj-1", 0 ],
					"midpoints" : [ 343.0, 254.5, 154.5, 254.5 ],
					"order" : 1,
					"source" : [ "obj-64", 0 ]
				}

			}
, 			{
				"patchline" : 				{
					"destination" : [ "obj-71", 0 ],
					"source" : [ "obj-68", 0 ]
				}

			}
, 			{
				"patchline" : 				{
					"destination" : [ "obj-64", 0 ],
					"source" : [ "obj-71", 0 ]
				}

			}
, 			{
				"patchline" : 				{
					"destination" : [ "obj-67", 0 ],
					"source" : [ "obj-72", 0 ]
				}

			}
 ],
		"parameters" : 		{
			"obj-54" : [ "live.gain~", "live.gain~", 0 ]
		}
,
		"dependency_cache" : [ 			{
				"name" : "TapeDelay.gendsp",
				"bootpath" : "~/Music/RebelTechnology/OwlGenPatches/TapeDelay/code",
				"patcherrelativepath" : "../code",
				"type" : "gDSP",
				"implicit" : 1
			}
, 			{
				"name" : "owl-faceplate-nourl-original (2).png",
				"bootpath" : "~/Music/RebelTechnology/backup/OwlGenPatches/SimpleFM/media",
				"patcherrelativepath" : "../../../backup/OwlGenPatches/SimpleFM/media",
				"type" : "PNG ",
				"implicit" : 1
			}
, 			{
				"name" : "drumLoop.aif",
				"bootpath" : "C74:/media/msp",
				"type" : "AIFF",
				"implicit" : 1
			}
 ],
		"autosave" : 0
	}

}
